<svg width="101" height="101" viewBox="0 0 101 101" fill="none" xmlns="http://www.w3.org/2000/svg">
<path d="M55.3408 42.2892C55.3408 40.2322 57.0082 38.5648 59.0651 38.5648C61.122 38.5648 62.7895 40.2322 62.7895 42.2892C62.7895 44.3461 61.122 46.0135 59.0651 46.0135C57.0082 46.0135 55.3408 44.3461 55.3408 42.2892Z" fill="#003049"/>
<path fill-rule="evenodd" clip-rule="evenodd" d="M38.6247 31.5098C46.4435 30.8301 54.3065 30.8301 62.1253 31.5098L65.875 31.8357C69.463 32.1476 72.3697 34.8779 72.9052 38.4394C74.0316 45.9296 74.0316 53.5461 72.9052 61.0363C72.3697 64.5978 69.463 67.3281 65.875 67.64L62.1253 67.966C54.3065 68.6456 46.4435 68.6456 38.6247 67.966L34.8749 67.64C31.287 67.3281 28.3803 64.5978 27.8448 61.0363C26.7184 53.5461 26.7184 45.9296 27.8448 38.4394C28.3803 34.8779 31.287 32.1476 34.8749 31.8357L38.6247 31.5098ZM61.8027 35.2201C54.1986 34.5591 46.5514 34.5591 38.9472 35.2201L35.1975 35.5461C33.3246 35.7089 31.8073 37.1341 31.5277 38.9932C30.8883 43.2455 30.6306 47.5405 30.7546 51.8273L40.368 42.2138C40.7307 41.8512 41.2269 41.6542 41.7395 41.6692C42.2521 41.6843 42.7359 41.9101 43.0766 42.2934L52.1924 52.5488L58.4763 50.4542C59.179 50.2199 59.9537 50.4244 60.4493 50.975L69.1869 60.6835C69.2003 60.6171 69.2121 60.5501 69.2223 60.4825C70.2934 53.3594 70.2934 46.1163 69.2223 38.9932C68.9427 37.1341 67.4254 35.7089 65.5525 35.5461L61.8027 35.2201ZM66.8122 63.6123L58.4969 54.3731L52.2053 56.4703C51.4986 56.7059 50.7195 56.4976 50.2246 55.9408L41.6051 46.2439L31.0684 56.7805C31.1895 58.0173 31.3426 59.2517 31.5277 60.4825C31.8073 62.3416 33.3246 63.7668 35.1975 63.9296L38.9472 64.2556C46.5514 64.9166 54.1986 64.9166 61.8028 64.2556L65.5525 63.9296C65.9963 63.8911 66.4201 63.7816 66.8122 63.6123Z" fill="#003049"/>
</svg>
