<svg width="17" height="17" viewBox="0 0 17 17" fill="none" xmlns="http://www.w3.org/2000/svg">
<path d="M14.5574 13.2883C14.5786 13.2884 14.9837 13.0457 15.4575 12.749C15.9314 12.4522 16.3097 12.1917 16.2984 12.1701C16.287 12.1485 16.0594 11.8412 15.7926 11.4872C15.2569 10.7764 14.7412 9.83658 14.5126 9.15488C13.8003 7.03022 14.1281 4.82394 15.4208 3.04307L15.7499 2.58957L15.1233 1.96295L14.4967 1.33629L14.0825 1.63147C11.3688 3.56539 8.11634 3.34287 5.23275 1.02609C5.04447 0.874797 4.88348 0.758036 4.87497 0.766549C4.7966 0.844922 3.81096 2.45648 3.81119 2.50583C3.81136 2.54152 3.98374 2.68748 4.19425 2.83008C6.52507 4.40936 9.1919 4.92428 11.2533 4.19322L11.7478 4.01786L4.87301 10.9177L0.525844 15.2807L1.79401 16.5489L6.16825 12.1905L13.0519 5.33198L12.8433 5.96905C12.3021 7.62174 12.5237 9.58036 13.4756 11.5551C13.7467 12.1177 14.4772 13.288 14.5574 13.2883Z" fill="#FEFAE0"/>
</svg>
