<svg width="461" height="130" viewBox="0 0 461 130" fill="none" xmlns="http://www.w3.org/2000/svg">
<path fill-rule="evenodd" clip-rule="evenodd" d="M92.5 30H87.5V52.1386L79.2067 31.612L74.5708 33.4851L83.0789 54.5434L67.019 38.4835L63.4835 42.019L78.8762 57.4117L58.9284 48.6963L56.9266 53.2781L78.0337 62.5H55V67.5H78.0336L56.9266 76.7218L58.9284 81.3037L78.8762 72.5883L63.4835 87.981L67.019 91.5163L83.0789 75.4566L74.5708 96.515L79.2067 98.3879L87.5 77.8614V100H92.5V77.8614L100.793 98.3879L105.429 96.515L96.9212 75.4566L112.981 91.5163L116.516 87.981L101.124 72.5883L121.072 81.3037L123.073 76.7218L101.967 67.5H125V62.5H101.966L123.073 53.2781L121.072 48.6963L101.124 57.4117L116.516 42.019L112.981 38.4835L96.9212 54.5433L105.429 33.4851L100.793 31.612L92.5 52.1386V30Z" fill="#003049"/>
<path d="M30.6 100.2C25.5333 100.2 21.0333 99.3 17.1 97.5C13.1667 95.7 10.1 93.1333 7.9 89.8C5.7 86.4667 4.56667 82.5 4.5 77.9H17.2C17.2 80.2333 17.7333 82.3333 18.8 84.2C19.9333 86 21.4667 87.4333 23.4 88.5C25.4 89.5667 27.8 90.1 30.6 90.1C33 90.1 35.0667 89.7333 36.8 89C38.6 88.2 39.9667 87.1 40.9 85.7C41.9 84.2333 42.4 82.5333 42.4 80.6C42.4 78.4 41.8667 76.6 40.8 75.2C39.8 73.7333 38.4 72.5 36.6 71.5C34.8 70.5 32.7333 69.6333 30.4 68.9C28.0667 68.1 25.6 67.2667 23 66.4C17.4667 64.5333 13.3 62.1667 10.5 59.3C7.7 56.3667 6.3 52.4667 6.3 47.6C6.3 43.5333 7.26667 40.0333 9.2 37.1C11.1333 34.1667 13.8333 31.9 17.3 30.3C20.8333 28.6333 24.9 27.8 29.5 27.8C34.1667 27.8 38.2333 28.6333 41.7 30.3C45.2333 31.9667 48 34.3 50 37.3C52.0667 40.2333 53.1333 43.7667 53.2 47.9H40.4C40.3333 46.1667 39.8667 44.5667 39 43.1C38.1333 41.5667 36.8667 40.3333 35.2 39.4C33.6 38.4 31.6333 37.9 29.3 37.9C27.3 37.8333 25.5 38.1667 23.9 38.9C22.3667 39.5667 21.1333 40.5667 20.2 41.9C19.3333 43.1667 18.9 44.7667 18.9 46.7C18.9 48.5667 19.3 50.1333 20.1 51.4C20.9667 52.6 22.2 53.6333 23.8 54.5C25.4 55.3 27.2667 56.0667 29.4 56.8C31.5333 57.5333 33.8667 58.3333 36.4 59.2C39.8667 60.3333 43 61.7333 45.8 63.4C48.6667 65 50.9333 67.1 52.6 69.7C54.2667 72.3 55.1 75.6667 55.1 79.8C55.1 83.4 54.1667 86.7667 52.3 89.9C50.4333 92.9667 47.7 95.4667 44.1 97.4C40.5 99.2667 36 100.2 30.6 100.2ZM160.524 100.2C153.591 100.2 147.591 98.7 142.524 95.7C137.524 92.6333 133.658 88.4 130.924 83C128.258 77.5333 126.924 71.2333 126.924 64.1C126.924 56.9 128.258 50.6 130.924 45.2C133.658 39.7333 137.524 35.4667 142.524 32.4C147.591 29.3333 153.591 27.8 160.524 27.8C168.858 27.8 175.658 29.8667 180.924 34C186.191 38.0667 189.524 43.8333 190.924 51.3H177.724C176.791 47.3667 174.891 44.2667 172.024 42C169.158 39.7333 165.291 38.6 160.424 38.6C156.024 38.6 152.224 39.6333 149.024 41.7C145.891 43.7 143.458 46.6333 141.724 50.5C140.058 54.3 139.224 58.8333 139.224 64.1C139.224 69.3667 140.058 73.9 141.724 77.7C143.458 81.4333 145.891 84.3333 149.024 86.4C152.224 88.4 156.024 89.4 160.424 89.4C165.291 89.4 169.158 88.3667 172.024 86.3C174.891 84.1667 176.791 81.2333 177.724 77.5H190.924C189.591 84.5667 186.258 90.1333 180.924 94.2C175.658 98.2 168.858 100.2 160.524 100.2ZM195.666 99V29H220.766C226.3 29 230.866 29.9667 234.466 31.9C238.133 33.7667 240.833 36.3 242.566 39.5C244.366 42.6333 245.266 46.2 245.266 50.2C245.266 53.9333 244.4 57.4 242.666 60.6C240.933 63.8 238.233 66.3667 234.566 68.3C230.9 70.2333 226.2 71.2 220.466 71.2H207.666V99H195.666ZM232.166 99L217.466 68.1H230.466L245.866 99H232.166ZM207.666 62.3H219.966C224.433 62.3 227.7 61.2333 229.766 59.1C231.9 56.9 232.966 54.0333 232.966 50.5C232.966 47.0333 231.933 44.2667 229.866 42.2C227.8 40.0667 224.5 39 219.966 39H207.666V62.3ZM246.078 99L271.678 29H285.078L310.678 99H297.978L278.278 43L258.578 99H246.078ZM257.478 82.5L260.678 73H295.178L298.378 82.5H257.478ZM322.088 99V38.7H301.488V29H354.588V38.7H333.988V99H322.088ZM357.479 99V29H402.679V38.7H369.479V58.8H399.679V68.3H369.479V89.3H402.679V99H357.479ZM431.791 100.2C426.725 100.2 422.225 99.3 418.291 97.5C414.358 95.7 411.291 93.1333 409.091 89.8C406.891 86.4667 405.758 82.5 405.691 77.9H418.391C418.391 80.2333 418.925 82.3333 419.991 84.2C421.125 86 422.658 87.4333 424.591 88.5C426.591 89.5667 428.991 90.1 431.791 90.1C434.191 90.1 436.258 89.7333 437.991 89C439.791 88.2 441.158 87.1 442.091 85.7C443.091 84.2333 443.591 82.5333 443.591 80.6C443.591 78.4 443.058 76.6 441.991 75.2C440.991 73.7333 439.591 72.5 437.791 71.5C435.991 70.5 433.925 69.6333 431.591 68.9C429.258 68.1 426.791 67.2667 424.191 66.4C418.658 64.5333 414.491 62.1667 411.691 59.3C408.891 56.3667 407.491 52.4667 407.491 47.6C407.491 43.5333 408.458 40.0333 410.391 37.1C412.325 34.1667 415.025 31.9 418.491 30.3C422.025 28.6333 426.091 27.8 430.691 27.8C435.358 27.8 439.425 28.6333 442.891 30.3C446.425 31.9667 449.191 34.3 451.191 37.3C453.258 40.2333 454.325 43.7667 454.391 47.9H441.591C441.525 46.1667 441.058 44.5667 440.191 43.1C439.325 41.5667 438.058 40.3333 436.391 39.4C434.791 38.4 432.825 37.9 430.491 37.9C428.491 37.8333 426.691 38.1667 425.091 38.9C423.558 39.5667 422.325 40.5667 421.391 41.9C420.525 43.1667 420.091 44.7667 420.091 46.7C420.091 48.5667 420.491 50.1333 421.291 51.4C422.158 52.6 423.391 53.6333 424.991 54.5C426.591 55.3 428.458 56.0667 430.591 56.8C432.725 57.5333 435.058 58.3333 437.591 59.2C441.058 60.3333 444.191 61.7333 446.991 63.4C449.858 65 452.125 67.1 453.791 69.7C455.458 72.3 456.291 75.6667 456.291 79.8C456.291 83.4 455.358 86.7667 453.491 89.9C451.625 92.9667 448.891 95.4667 445.291 97.4C441.691 99.2667 437.191 100.2 431.791 100.2Z" fill="#003049"/>
</svg>
