<svg width="101" height="101" viewBox="0 0 101 101" fill="none" xmlns="http://www.w3.org/2000/svg">
<path d="M46.9552 1.16254C48.8558 -0.387513 51.5842 -0.387513 53.4846 1.16254L57.5824 4.50472C58.8722 5.55631 60.5892 5.92245 62.1952 5.48829L67.2863 4.11225C69.6505 3.47323 72.1383 4.58221 73.2437 6.76762L75.6492 11.5248C76.3982 13.0053 77.812 14.036 79.4505 14.2956L84.6827 15.1245C87.0934 15.5064 88.9081 17.5238 89.0331 19.9616L89.3084 25.3286C89.3931 26.9788 90.2625 28.4889 91.6468 29.3912L96.1233 32.309C98.1616 33.638 98.9963 36.2097 98.1264 38.4826L96.2007 43.5153C95.6113 45.055 95.7927 46.7833 96.6878 48.1674L99.6115 52.6854C100.932 54.7273 100.65 57.4139 98.9338 59.1371L95.1475 62.9384C93.9832 64.1073 93.447 65.7618 93.7053 67.3915L94.5478 72.7115C94.9285 75.1181 93.5756 77.4637 91.3018 78.3398L86.3377 80.251C84.7927 80.8461 83.6263 82.1452 83.2012 83.7455L81.8267 88.9203C81.1991 91.284 79.0001 92.8833 76.5584 92.7526L71.2849 92.4705C69.6252 92.3817 68.0244 93.0966 66.9831 94.3916L63.6575 98.5281C62.1213 100.439 59.4538 101.007 57.2724 99.8866L52.5791 97.4769C51.0981 96.7171 49.3418 96.7171 47.8609 97.4769L43.1672 99.8866C40.9863 101.007 38.3187 100.439 36.7825 98.5281L33.4569 94.3916C32.4155 93.0966 30.8147 92.3817 29.1552 92.4705L23.8816 92.7526C21.4398 92.8833 19.2409 91.284 18.6132 88.9203L17.2386 83.7455C16.8135 82.1452 15.6473 80.8461 14.1023 80.251L9.13822 78.3398C6.8641 77.4637 5.51131 75.1181 5.89242 72.7115L6.73476 67.3915C6.99277 65.7618 6.4568 64.1073 5.29244 62.9384L1.50595 59.1371C-0.210306 57.4139 -0.492363 54.7273 0.828658 52.6854L3.75183 48.1674C4.64737 46.7833 4.82842 45.055 4.23925 43.5153L2.31329 38.4826C1.4435 36.2097 2.27814 33.638 4.31688 32.309L8.79331 29.3912C10.1776 28.4889 11.0466 26.9788 11.1313 25.3286L11.4067 19.9616C11.5318 17.5238 13.3462 15.5064 15.7571 15.1245L20.9893 14.2956C22.6278 14.036 24.0419 13.0053 24.7906 11.5248L27.1964 6.76762C28.3016 4.58221 30.7896 3.47323 33.1538 4.11225L38.2447 5.48829C39.8509 5.92245 41.5679 5.55631 42.8573 4.50472L46.9552 1.16254Z" fill="#003049"/>
<path d="M56.7702 23.9055C52.4599 23.0224 48.0154 23.0224 43.7051 23.9055C42.3666 24.1798 41.3359 25.2513 41.1137 26.5994L40.9502 27.5917C39.6043 35.7584 39.6043 44.0903 40.9502 52.2571L41.1137 53.2493C41.3359 54.5974 42.3666 55.6689 43.7051 55.9432C48.0154 56.8263 52.4599 56.8263 56.7702 55.9432C58.1087 55.6689 59.1394 54.5974 59.3616 53.2493L59.5251 52.2571C60.8711 44.0903 60.8711 35.7584 59.5251 27.5917L59.3616 26.5994C59.1394 25.2513 58.1087 24.1798 56.7702 23.9055Z" fill="#FEFAE0"/>
<path d="M28.8087 45.2246C30.0456 45.0494 31.1903 45.91 31.3656 47.1469L32.7243 56.7354C33.0914 59.3261 35.145 61.3517 37.7405 61.6833C46.0382 62.7431 54.4371 62.7431 62.7348 61.6833C65.3303 61.3517 67.3839 59.3261 67.751 56.7354L69.1097 47.1469C69.285 45.91 70.4298 45.0494 71.6667 45.2246C72.9035 45.3999 73.7642 46.5447 73.5889 47.7816L72.2302 57.3702C71.5772 61.9781 67.9245 65.581 63.308 66.1707C59.7183 66.6292 56.1106 66.8981 52.4997 66.9773V79.1316C52.4997 80.3808 51.487 81.3936 50.2377 81.3936C48.9885 81.3936 47.9758 80.3808 47.9758 79.1316V66.9773C44.3648 66.8981 40.757 66.6292 37.1673 66.1707C32.5508 65.581 28.8981 61.9781 28.2451 57.3701L26.8864 47.7816C26.7112 46.5447 27.5718 45.3999 28.8087 45.2246Z" fill="#FEFAE0"/>
</svg>
